# xmcd
#
# Track frame offsets: 
#        150
#        3225
#        6150
#        11850
#        16425
#        20475
#        24450
#        26025
#        31125
#        35775
#        42900
#        45675
#        48075
#        53325
#        61575
#        74475
#        84450
#        87975
#        90000
#        92625
#        96225
#        99825
#        103875
#        108375
#        113025
#        117750
#        124650
#        136875
#
# Disc length: 2005 seconds
#
# Revision: 0
# Processed by: cddbd v1.5.2PL0 Copyright (c) Steve Scherf et al.
# Submitted via: ExactAudioCopy v0.99pb4
#
DISCID=5207d31c
DTITLE=³¢ªö¼ä - ¤@­¶¥x¥_
DYEAR=2010
DGENRE=Soundtrack
TTITLE0=First Page (Opening)
TTITLE1=First Page (Bridge)
TTITLE2=Au Revoir Taipei
TTITLE3=Au Revoir Taipei (Kai Leaving)
TTITLE4=Au Revoir Taipei (Solo Piano 1)
TTITLE5=Au Revoir Taipei (Solo Piano 2)
TTITLE6=Love And Dumplings
TTITLE7=Naive Melody (Lottery Store)
TTITLE8=Naive Melody (Family Mart)
TTITLE9=Naive Melody (Full Band)
TTITLE10=Naive Melody (Bass Version)
TTITLE11=Where Is My Baby Tonight? (Kai)
TTITLE12=Where Is My Baby Tonight? (Ji-Yong)
TTITLE13=Where Is My Baby Tonight? (Hong)
TTITLE14=Moondance (Park)
TTITLE15=Moondance (Bookstore)
TTITLE16=Orange Blues (Full Band)
TTITLE17=Orange Blues (With Drums)
TTITLE18=Orange Blues (Love Hotel)
TTITLE19=The One That Got Away
TTITLE20=The One That Got Away (Drums)
TTITLE21=Chasing Fools
TTITLE22=Solio! Solio!
TTITLE23=Solio! Solio! (Drums)
TTITLE24=The Nightmarket Shuffle
TTITLE25=The Underpass Shuffle
TTITLE26=Orange Dance
TTITLE27=Au Revoir Taipei (Vocal Version)
EXTD=
EXTT0=
EXTT1=
EXTT2=
EXTT3=
EXTT4=
EXTT5=
EXTT6=
EXTT7=
EXTT8=
EXTT9=
EXTT10=
EXTT11=
EXTT12=
EXTT13=
EXTT14=
EXTT15=
EXTT16=
EXTT17=
EXTT18=
EXTT19=
EXTT20=
EXTT21=
EXTT22=
EXTT23=
EXTT24=
EXTT25=
EXTT26=
EXTT27=
PLAYORDER=
